<svg data-v-423bf9ae="" xmlns="http://www.w3.org/2000/svg" viewBox="0 0 442 90" class="iconLeft"><!----><!----><!----><g data-v-423bf9ae="" id="6607e8d9-6b4c-43ac-9a14-7d47acc023a0" fill="black" transform="matrix(4.709576222757963,0,0,4.709576222757963,171.21870039448828,-4.733126073351457)"><path d="M10.56 8.74L5.57 8.74L5.57 10.02L8.92 10.02C8.68 11.65 7.32 12.78 5.57 12.78C3.54 12.78 2.09 11.26 2.09 9.14C2.09 7.04 3.54 5.52 5.57 5.52C7.20 5.52 8.41 6.48 8.82 7.91L10.42 7.91C9.97 5.73 8.01 4.19 5.56 4.19C2.65 4.19 0.53 6.27 0.53 9.14C0.53 12.04 2.65 14.13 5.56 14.13C8.51 14.13 10.57 12.04 10.57 9.14C10.57 9.02 10.56 8.85 10.56 8.74ZM17.63 9.00C18.55 8.65 19.15 7.83 19.15 6.76C19.15 5.31 18.05 4.31 16.51 4.31L12.11 4.31L12.11 14L16.94 14C18.47 14 19.56 12.96 19.56 11.45C19.56 10.19 18.79 9.27 17.63 9.00ZM17.65 7.06C17.65 7.90 17.05 8.51 16.21 8.51L13.64 8.51L13.64 5.64L16.21 5.64C17.05 5.64 17.65 6.23 17.65 7.06ZM16.56 12.67L13.64 12.67L13.64 9.73L16.56 9.73C17.39 9.73 18.00 10.35 18.00 11.20C18.00 12.05 17.39 12.67 16.56 12.67ZM28.43 11.84C28.39 10.61 27.82 9.84 26.84 9.55C27.89 9.16 28.52 8.26 28.52 7.06C28.52 5.38 27.31 4.31 25.42 4.31L21.07 4.31L21.07 14L22.60 14L22.60 10.23L25.40 10.23C26.32 10.23 26.88 10.95 26.91 12.03C26.92 12.82 26.96 13.66 27.03 14L28.63 14C28.52 13.65 28.46 12.74 28.43 11.84ZM25.27 9.00L22.60 9.00L22.60 5.67L25.27 5.67C26.31 5.67 26.95 6.30 26.95 7.32C26.95 8.34 26.31 9.00 25.27 9.00ZM35.76 9.00C36.68 8.65 37.28 7.83 37.28 6.76C37.28 5.31 36.18 4.31 34.64 4.31L30.24 4.31L30.24 14L35.07 14C36.60 14 37.69 12.96 37.69 11.45C37.69 10.19 36.92 9.27 35.76 9.00ZM35.78 7.06C35.78 7.90 35.18 8.51 34.34 8.51L31.77 8.51L31.77 5.64L34.34 5.64C35.18 5.64 35.78 6.23 35.78 7.06ZM34.69 12.67L31.77 12.67L31.77 9.73L34.69 9.73C35.52 9.73 36.13 10.35 36.13 11.20C36.13 12.05 35.52 12.67 34.69 12.67ZM39.06 4.31L39.06 14L40.49 14L40.49 4.31ZM45.53 6.99C43.40 6.99 41.85 8.48 41.85 10.56C41.85 12.63 43.40 14.13 45.53 14.13C47.66 14.13 49.20 12.63 49.20 10.56C49.20 8.48 47.66 6.99 45.53 6.99ZM45.51 8.23C46.80 8.23 47.73 9.21 47.73 10.56C47.73 11.91 46.80 12.88 45.51 12.88C44.24 12.88 43.32 11.91 43.32 10.56C43.32 9.21 44.24 8.23 45.51 8.23ZM56.03 7.11L56.03 8.09C55.43 7.41 54.54 6.99 53.51 6.99C51.56 6.99 50.15 8.43 50.15 10.40C50.15 12.39 51.56 13.83 53.51 13.83C54.54 13.83 55.43 13.41 56.03 12.73L56.03 13.64C56.03 14.87 55.10 15.78 53.84 15.78C52.92 15.78 52.05 15.23 51.81 14.49L50.47 14.48C50.76 15.90 52.21 16.93 53.90 16.93C55.97 16.93 57.46 15.51 57.46 13.55L57.46 7.11ZM53.82 12.73C52.54 12.73 51.62 11.76 51.62 10.42C51.62 9.06 52.54 8.09 53.82 8.09C55.10 8.09 56.03 9.06 56.03 10.42C56.03 11.76 55.10 12.73 53.82 12.73Z"></path></g><!----><g data-v-423bf9ae="" id="99f465b2-997a-44c8-a34f-876a6e731969" transform="matrix(4.803586662404586,0,0,4.803586662404586,0.14261340152661717,-31.22538662899096)" stroke="none" fill="black"><path d="M16 19.586l7.496-12.954H8.504zM7.496 12.414L0 25.368h14.992zM24.504 12.414l-7.496 12.954H32z"></path></g><!----></svg>